<svg xmlns="http://www.w3.org/2000/svg" xmlns:xlink="http://www.w3.org/1999/xlink" id="Слой_1" width="215.475" height="224.542" x="0" y="0" enable-background="new 0 0 215.475 224.542" version="1.1" viewBox="0 0 215.475 224.542" xml:space="preserve"><switch><g><circle cx="107.114" cy="107.58" r="104" fill="#C2C2E0"/><ellipse cx="109.739" cy="211.58" fill="#212121" rx="79" ry="8.875"/><circle cx="107.113" cy="109.706" r="104" fill="#99C"/><circle cx="107.114" cy="109.455" r="92" fill="#583643"/><path d="M194.437,80.71c0.034,0.013,0.068,0.025,0.103,0.039c-12.061-36.75-46.642-63.292-87.427-63.292 c-50.81,0-92,41.19-92,91.999c0,27.639,12.19,52.429,31.485,69.293l1.663,0.292C48.261,179.04,35.761,20.714,194.437,80.71z" opacity=".1"/><circle cx="107.03" cy="38.04" r="6.25" fill="#422932"/><path fill="#737399" d="M107.113,211.555c57.095,0,103.437-46.01,103.987-102.975c0.004,0.367,0.014,0.733,0.014,1.102 c0,57.438-46.563,104-104,104c-57.437,0-104-46.563-104-104c0-0.343,0.01-0.683,0.013-1.024 C3.719,165.586,50.044,211.555,107.113,211.555z"/><circle cx="107.113" cy="185.29" r="6.25" fill="#422932"/><circle cx="33.906" cy="113.79" r="6.25" fill="#422932"/><circle cx="179.655" cy="113.706" r="6.25" fill="#422932"/><path fill="#CECEE6" d="M107.112,200.332c-50.433,0-91.381-40.585-91.984-90.876c-0.004,0.375-0.014,0.749-0.014,1.125 c0,50.811,41.19,92.001,91.999,92.001c50.811,0,92.002-41.19,92.002-92.001c0-0.376-0.01-0.75-0.016-1.125 C198.495,159.747,157.547,200.332,107.112,200.332z"/><path fill="#737399" d="M107.112,17.706c-50.433,0-91.381,40.585-91.984,90.876c-0.004-0.375-0.014-0.749-0.014-1.125 c0-50.811,41.19-92.001,91.999-92.001c50.811,0,92.002,41.19,92.002,92.001c0,0.376-0.01,0.75-0.016,1.125 C198.495,58.291,157.547,17.706,107.112,17.706z"/><path fill="#737399" d="M67.522,214.018c-1.831,1.83-5.958,0.394-7.789-1.437l0,0c-1.831-1.831-0.671-3.362,1.16-5.192 l6.187-6.188c1.831-1.83,1.162,1.009,2.992,2.839l0.792,1.542c1.831,1.831,4.676,0.418,2.846,2.248L67.522,214.018z"/><path fill="#99C" d="M66.063,212.309c-1.831,1.83-4.799,1.83-6.629,0l0,0c-1.831-1.831-1.831-4.799,0-6.629l6.187-6.188 c1.831-1.83,4.799-1.83,6.629,0l0,0c1.831,1.831,1.831,4.799,0,6.629L66.063,212.309z"/><path fill="#737399" d="M146.368,215.264c1.83,1.83,5.959,0.394,7.789-1.437l0,0c1.83-1.831,0.671-3.362-1.16-5.192l-6.187-6.188 c-1.831-1.83-1.161,1.009-2.992,2.839l-0.792,1.542c-1.83,1.831-4.676,0.418-2.846,2.248L146.368,215.264z"/><path fill="#99C" d="M147.827,213.555c1.83,1.83,4.799,1.83,6.629,0l0,0c1.83-1.831,1.83-4.799,0-6.629l-6.188-6.188 c-1.83-1.83-4.799-1.83-6.629,0l0,0c-1.83,1.831-1.83,4.799,0,6.629L147.827,213.555z"/></g></switch></svg>